<?xml version="1.0" standalone="no"?><!DOCTYPE svg PUBLIC "-//W3C//DTD SVG 1.1//EN" "http://www.w3.org/Graphics/SVG/1.1/DTD/svg11.dtd"><svg t="1565509319845" class="icon" viewBox="0 0 1024 1024" version="1.1" xmlns="http://www.w3.org/2000/svg" p-id="1043" xmlns:xlink="http://www.w3.org/1999/xlink" width="200" height="200"><defs><style type="text/css"></style></defs><path d="M512 981.333333c-39.333333 0-83.806667-26.326667-114.206667-48.406666-42.473333-30.86-85.333333-73.2-123.92-122.433334-42.44-54.153333-77.933333-114.82-102.626666-175.446666C142.546667 564.62 128 494.506667 128 426.666667a384 384 0 1 1 768 0c0 67.84-14.546667 137.953333-43.246667 208.38-24.666667 60.626667-60.186667 121.293333-102.626666 175.446666-38.593333 49.233333-81.446667 91.573333-123.92 122.433334C595.806667 955.006667 551.333333 981.333333 512 981.333333z m0-896c-188.213333 0-341.333333 153.12-341.333333 341.333334 0 159.206667 85.706667 292.326667 136.793333 357.506666 36.18 46.166667 76.093333 85.666667 115.413333 114.233334C458.086667 924 490.573333 938.666667 512 938.666667s53.913333-14.666667 89.126667-40.26c39.333333-28.566667 79.233333-68.066667 115.413333-114.233334C767.626667 718.993333 853.333333 585.873333 853.333333 426.666667c0-188.213333-153.12-341.333333-341.333333-341.333334z m170.666667 341.333334c0 94.253333-76.413333 170.666667-170.666667 170.666666S341.333333 520.92 341.333333 426.666667s76.413333-170.666667 170.666667-170.666667 170.666667 76.413333 170.666667 170.666667zM512 298.666667c-70.666667 0-128 57.333333-128 128s57.333333 128 128 128 128-57.333333 128-128-57.333333-128-128-128z" fill="#aaaaaa" p-id="1044"></path></svg>